<?xml version="1.0" encoding="UTF-8" standalone="no"?>
<!-- Generator: imaengine 6.0   -->

<svg
   xmlns:dc="http://purl.org/dc/elements/1.1/"
   xmlns:cc="http://creativecommons.org/ns#"
   xmlns:rdf="http://www.w3.org/1999/02/22-rdf-syntax-ns#"
   xmlns:svg="http://www.w3.org/2000/svg"
   xmlns="http://www.w3.org/2000/svg"
   xmlns:sodipodi="http://sodipodi.sourceforge.net/DTD/sodipodi-0.dtd"
   xmlns:inkscape="http://www.inkscape.org/namespaces/inkscape"
   viewBox="0 0 2053.6758 1054.8123"
   width="2053.6758"
   height="1054.8123"
   version="1.1"
   id="svg2"
   inkscape:version="0.91 r13725"
   sodipodi:docname="fakethicksignature.svg">
  <metadata
     id="metadata11">
    <rdf:RDF>
      <cc:Work
         rdf:about="">
        <dc:format>image/svg+xml</dc:format>
        <dc:type
           rdf:resource="http://purl.org/dc/dcmitype/StillImage" />
        <dc:title></dc:title>
      </cc:Work>
    </rdf:RDF>
  </metadata>
  <sodipodi:namedview
     pagecolor="#ffffff"
     bordercolor="#666666"
     borderopacity="1"
     objecttolerance="10"
     gridtolerance="10"
     guidetolerance="10"
     inkscape:pageopacity="0"
     inkscape:pageshadow="2"
     inkscape:window-width="1412"
     inkscape:window-height="748"
     id="namedview9"
     showgrid="false"
     fit-margin-top="0"
     fit-margin-left="0"
     fit-margin-right="0"
     fit-margin-bottom="0"
     inkscape:zoom="0.092115535"
     inkscape:cx="1039.4254"
     inkscape:cy="503.03828"
     inkscape:window-x="0"
     inkscape:window-y="0"
     inkscape:window-maximized="0"
     inkscape:current-layer="svg2" />
  <defs
     id="defs4" />
  <g
     id="layer0"
     transform="matrix(0,-1,1,0,-229.79421,1234.8186)">
    <path
       d="m 1064.74,229.804 c -14.38,-0.582 -19.44,24.915 -18.87,42.376 -2.92,27.214 6.31,52.56 1.17,72.416 -11.1,14.133 -38.66,15.067 -57.235,19.856 -19.155,6.54 -42.631,11.563 -61.903,16.352 -19.156,6.54 -40.647,11.447 -60.736,17.52 -17.403,8.526 -39.011,15.534 -56.064,22.192 -19.272,5.839 -39.362,14.483 -56.064,21.023 -14.016,16.703 -46.019,9.461 -50.224,-9.344 -8.876,-16.001 -12.147,-39.127 -23.36,-54.895 -8.292,-16.82 -21.14,-32.587 -38.543,-39.712 -24.528,7.008 0.116,39.244 2.336,50.224 10.278,16.352 18.687,36.441 26.863,50.223 15.652,22.66 -2.219,43.683 -21.023,45.552 -17.754,7.826 -38.077,16.235 -54.896,23.36 -17.52,7.359 -37.26,16.235 -53.728,23.36 -17.52,7.826 -38.427,15.418 -53.728,23.36 -18.104,8.41 -38.077,14.834 -56.064,23.36 -17.286,8.41 -38.66,15.651 -53.728,23.36 -18.921,7.242 -38.427,16.235 -56.063,21.024 -18.688,7.825 -44.034,10.979 -52.56,25.696 -5.723,30.835 28.849,31.185 49.056,23.36 16.936,-8.059 39.127,-14.483 53.727,-23.36 19.623,-5.84 38.544,-15.418 56.064,-21.024 17.403,-8.527 37.376,-17.17 53.728,-24.528 18.688,-7.242 37.726,-14.717 53.728,-24.528 18.921,-7.358 37.493,-17.286 54.896,-23.36 17.636,-7.826 38.427,-15.534 56.064,-22.192 14.132,-5.373 37.142,-25.929 53.727,-11.68 15.652,10.395 18.805,35.857 26.864,50.224 5.84,20.557 14.6,40.413 17.52,59.568 9.344,17.637 13.432,41.931 19.856,57.232 24.995,32.587 -22.892,17.87 -31.536,9.344 -19.739,-6.191 -38.894,-13.549 -66.576,-12.848 -26.513,-0.351 -51.391,3.27 -71.247,7.008 -21.725,3.737 -38.778,15.184 -47.888,29.2 -12.731,15.768 -5.957,49.406 3.504,59.567 9.227,16.936 29.2,25.58 40.88,36.208 15.651,12.381 -22.192,24.061 -33.872,28.032 -18.805,7.359 -34.456,20.206 -42.048,36.208 -0.234,27.682 18.221,37.843 36.208,42.048 25.813,-0.234 59.684,2.802 31.536,19.856 -19.623,6.19 -49.64,4.672 -65.408,11.68 -26.046,17.403 8.526,40.763 26.864,29.2 23.009,-2.57 47.421,-6.658 68.912,-9.344 26.396,0.584 45.902,9.694 64.239,12.848 25.93,5.956 17.053,35.744 9.344,50.224 -6.073,20.09 -10.161,44.62 -14.016,63.07 -6.657,19.86 -28.966,26.16 -38.543,39.71 -12.732,13.9 -27.098,25.93 -24.528,54.9 -2.687,22.42 31.068,37.96 8.176,50.22 -12.264,12.85 -36.325,17.41 -51.392,25.7 -16.936,3.15 -44.618,20.79 -28.032,39.71 16.936,14.25 47.654,3.97 63.072,-2.34 21.724,-4.43 41.347,-13.54 58.399,-19.85 19.74,-5.72 39.245,-14.83 57.232,-19.86 19.272,-6.65 44.034,-10.39 59.568,-17.52 22.426,-4.67 47.07,-6.54 73.584,-5.84 25.929,-1.87 58.984,12.5 24.528,21.03 -16.235,10.51 -41.698,13.55 -58.4,19.85 -18.805,7.13 -40.996,13.55 -57.232,19.86 -19.038,7.36 -38.66,16.35 -58.4,19.85 -16.702,8.88 -37.376,16.82 -53.727,23.36 -16.469,9.58 -36.208,18.46 -50.224,28.04 -16.119,9.22 -34.924,18.92 -45.552,31.53 -11.797,20.68 3.153,44.85 22.192,47.89 16.819,9.23 51.859,2.69 63.072,14.02 18.454,7.94 24.528,30.6 44.383,32.7 33.989,1.4 29.317,20.91 5.84,28.03 -16.235,9.81 -34.923,19.62 -49.055,29.2 -16.002,9.23 -31.186,22.66 -46.72,30.37 -10.396,15.3 -29.901,24.29 -33.872,43.22 -0.701,27.44 32.353,26.04 50.224,19.85 23.593,-2.68 44.851,-7.82 65.407,-14.01 22.309,-3.04 44.618,-9.23 64.24,-12.85 12.615,-0.12 67.16,-14.25 49.056,0 33.405,-6.78 25.462,8.76 0,16.35 -17.52,8.29 -40.296,14.02 -57.232,19.86 -17.052,9.11 -38.544,16.23 -54.896,23.36 -15.768,9.69 -30.134,23.82 -32.703,45.55 -9.228,12.03 -37.727,22.77 -53.728,16.35 -11.447,-14.13 -27.682,-24.41 -37.376,-42.05 -14.016,-10.74 -24.645,-28.61 -36.208,-40.88 -12.614,-12.5 -27.098,-26.63 -38.544,-39.71 -11.33,-13.08 -26.63,-26.28 -37.376,-39.71 -12.614,-13.08 -25.813,-26.28 -39.712,-39.71 -16.352,-8.41 -26.513,-26.75 -40.88,-36.21 -13.081,-12.03 -26.279,-27.33 -39.711,-38.55 -11.68,-12.73 -27.682,-25.22 -42.048,-35.04 -10.746,-14.95 -28.967,-23.01 -40.88,-38.54 -12.965,-11.8 -25.579,-27.8 -51.392,-26.86 -15.301,7.59 8.293,39.24 16.352,43.21 11.913,15.19 30.134,25.58 39.712,37.38 15.301,12.26 30.134,26.16 42.048,36.21 11.329,15.53 29.55,25.93 39.712,38.54 15.534,10.63 28.966,25.81 40.879,36.21 13.199,13.31 28.616,26.51 38.544,39.71 18.571,8.06 24.411,28.62 39.712,39.71 12.498,13.2 27.915,26.4 37.376,38.55 14.717,12.49 24.995,30.83 36.208,42.04 14.717,11.92 25.346,29.79 36.208,40.88 12.381,14.72 23.593,32.01 33.872,43.22 13.548,13.9 23.477,32.59 33.872,44.38 11.563,15.19 24.995,30.25 35.039,43.22 10.045,15.88 22.543,32 31.536,44.38 10.863,17.52 23.361,31.42 32.704,46.72 13.315,14.25 23.944,32.12 35.04,43.22 10.512,16.23 22.076,33.17 31.536,45.55 11.68,15.53 23.71,32 32.704,45.55 10.979,15.42 26.63,28.39 36.208,40.88 12.264,14.49 22.542,32.82 33.872,43.22 10.628,16.58 27.448,28.38 35.04,43.21 14.249,12.27 21.491,33.64 39.712,37.38 30.367,-3.04 8.526,-35.27 1.168,-47.89 -8.06,-16.47 -20.557,-32.47 -29.2,-49.05 -9.928,-13.79 -19.039,-33.29 -30.368,-46.72 -7.709,-16.47 -18.922,-33.76 -28.032,-49.06 -9.928,-15.53 -20.908,-30.95 -31.536,-47.89 -9.461,-14.95 -19.739,-33.29 -30.368,-46.72 -9.928,-14.95 -20.79,-32.7 -30.368,-47.89 -9.227,-14.83 -20.907,-31.88 -30.368,-46.72 -8.993,-16.35 -22.075,-29.78 -28.032,-51.39 3.387,-18.57 39.596,5.14 49.056,7.01 19.155,7.48 34.806,20.32 43.216,33.87 10.862,16.24 24.294,31.31 32.704,45.55 13.432,12.85 23.71,31.07 37.376,39.72 14.249,12.49 27.448,27.8 39.712,37.37 12.38,14.72 30.718,25 42.047,36.21 12.965,13.43 30.018,25 40.881,36.21 16.47,11.21 31.42,22.66 45.55,33.87 16,10.75 32.59,22.66 46.72,30.37 18.46,6.54 33.29,26.28 56.06,18.69 13.09,-17.41 -9.22,-38.66 -14.01,-52.56 -0.23,-10.63 -41.7,-42.4 -25.7,-17.52 30.95,24.76 -16.47,3.73 -26.86,0 -17.05,-8.18 -33.76,-20.09 -46.72,-31.54 -14.83,-9.69 -30.72,-22.43 -43.22,-33.87 -14.947,-10.75 -29.897,-22.31 -43.212,-36.21 -16.119,-8.76 -28.499,-24.99 -39.712,-37.38 -27.915,-21.6 0.701,-28.49 14.016,-9.34 15.417,11.21 30.251,25 45.551,32.7 11.096,11.57 35.507,26.28 47.887,21.03 27.92,16 -6.42,-24.88 -12.85,-28.03 -10.63,-13.9 -27.678,-25.47 -40.877,-36.21 -15.417,-9.58 -30.134,-23.48 -46.719,-31.54 -20.324,-12.14 -7.826,-35.39 4.672,-47.89 14.483,-11.79 25.345,-29.54 35.04,-43.21 8.993,-13.08 13.431,-48.01 4.671,-65.41 -15.067,-27.56 16.236,-33.29 32.703,-37.37 21.84,-5.03 42.98,-10.28 63.07,-16.36 19.63,-2.8 38.08,-27.8 16.36,-39.71 -11.68,-12.85 -36.56,-16.47 -56.07,-22.19 -15.88,-7.94 -45.317,-7.01 -63.07,-14.02 -17.871,-7 -17.52,-33.98 -46.72,-32.7 -21.959,-2.1 -50.575,-1.99 -72.416,-4.67 -24.061,0.82 -54.896,-1.52 -75.92,1.17 -23.243,1.98 -45.084,8.76 -66.576,10.51 -16.118,9.93 -53.494,11.33 -51.391,0 8.175,-10.16 32.12,-19.16 44.383,-28.03 18.455,-7.71 37.143,-17.64 50.224,-26.87 19.506,-7.01 38.428,-16.7 54.896,-23.36 20.323,-6.31 40.529,-12.5 60.736,-18.69 19.739,-0.23 50.691,-17.63 26.864,-32.7 -19.389,-7.71 -49.523,1.17 -67.744,2.34 -21.958,3.85 -45.902,8.52 -70.08,7 -19.622,-1.51 -55.363,-4.67 -52.56,-17.52 10.162,-15.65 38.077,-16.35 56.064,-22.19 24.061,-0.93 48.238,-5.37 71.248,-5.84 25.462,0 57.114,3.04 75.92,-1.17 30.601,-7.35 -2.336,-35.04 -21.024,-32.7 -18.571,-6.19 -47.187,-6.07 -68.912,-9.34 -22.542,3.62 -52.21,2.57 -68.912,9.34 -21.374,3.97 -41.23,12.73 -59.568,18.69 -14.716,9.93 -41.464,11.8 -64.239,11.68 -38.778,-3.51 9.11,-25 16.352,-28.03 16.235,-9.35 35.624,-18.57 51.391,-25.7 18.572,-7.59 39.362,-15.3 56.064,-21.02 19.623,-7.71 39.011,-14.72 58.4,-22.2 18.454,-6.77 40.646,-13.19 57.232,-19.85 21.608,-4.09 40.296,-14.02 58.4,-19.86 16.468,-8.52 34.923,-18.57 43.216,-33.87 15.067,-18.69 -17.404,-30.72 -35.04,-35.04 -20.44,-3.27 -48.472,-3.85 -64.24,-11.68 -3.037,-14.95 35.04,-15.77 40.88,-29.2 24.06,-17.52 -22.543,-28.15 -39.712,-19.85 -22.309,3.73 -38.778,13.78 -56.064,23.36 -18.221,7 -37.259,16.58 -60.736,16.35 -16.702,6.77 -43.216,14.95 -65.408,9.34 -27.331,2.8 -32.353,-27.1 -16.352,-39.71 13.9,-12.62 26.748,-28.27 45.552,-32.7 25.813,-12.97 41.581,10.04 53.728,16.35 23.01,10.51 35.273,-16 45.552,-25.7 13.315,-12.26 13.198,-49.64 -9.344,-50.22 -22.309,-6.43 -43.916,2.33 -67.744,3.5 -23.009,-6.66 1.986,-39.71 3.504,-52.56 3.504,-18.69 39.245,-21.84 53.728,-12.85 21.141,6.08 43.216,12.62 60.736,16.36 16.469,4.32 56.297,19.03 56.064,-7.01 -5.724,-18.22 -23.243,-29.319 -36.208,-40.882 -13.315,-11.096 -31.886,-21.024 -50.224,-26.864 -14.95,-10.279 -48.354,-8.176 -64.24,-2.336 -18.104,8.176 -47.42,10.512 -63.072,-2.336 -27.681,-10.746 19.506,-22.075 30.368,-24.528 22.192,-3.387 44.034,-10.162 63.072,-14.016 19.506,-6.424 45.552,-9.11 60.736,-16.352 22.075,-4.438 43.099,-11.914 63.072,-15.184 20.907,-4.789 46.72,-7.475 63.071,-14.016 16.936,-11.68 31.423,-26.163 9.344,-36.208 -17.052,-9.344 -49.639,-3.504 -64.239,2.336 -19.389,7.125 -42.866,10.045 -59.568,19.856 -19.973,5.723 -40.296,13.899 -61.904,15.184 -18.104,7.942 -44.5,10.045 -64.24,12.848 -20.673,5.84 -48.939,6.074 -68.912,9.344 -23.126,3.387 -50.808,2.219 -77.087,2.336 -40.647,-2.803 -2.453,-24.878 11.68,-25.696 19.739,-6.307 40.763,-13.899 58.399,-19.856 19.856,-5.489 46.837,-7.126 67.744,-9.344 28.616,2.103 49.524,-3.504 74.752,-4.672 24.178,0.117 42.982,-17.169 28.032,-38.544 -5.49,-18.337 -11.214,-41.23 -16.352,-60.736 -3.504,-20.79 -8.877,-43.916 -14.016,-63.071 -4.322,-20.44 -13.198,-40.063 -17.52,-59.568 -6.891,-18.338 -14.95,-38.778 -22.192,-56.064 -2.102,-20.089 -18.922,-37.843 -14.016,-59.568 7.008,-18.454 35.741,-18.221 46.72,-30.368 19.155,-7.475 36.091,-17.052 52.56,-26.864 18.454,-7.241 38.544,-15.768 56.064,-22.191 30.017,-10.512 43.566,-5.023 10.512,5.839 -18.922,5.023 -49.056,25.463 -9.344,14.016 8.409,6.541 -28.149,19.272 -39.712,23.36 -16.586,7.826 -30.134,28.499 -21.024,49.056 6.891,19.155 29.317,25.345 54.896,21.024 23.71,-1.985 39.361,-15.067 52.56,-24.528 18.454,-8.526 31.769,-21.725 46.719,-32.704 12.377,-13.782 30.247,-24.411 42.047,-36.208 11.8,-11.796 43.45,-27.915 32.71,-9.344 20.55,6.074 19.38,35.858 28.03,49.056 7.01,20.09 13.66,42.048 19.85,57.232 7.6,19.973 12.27,43.917 18.69,59.568 5.61,21.257 14.02,41.464 16.35,61.904 5.61,20.556 10.28,44.383 14.02,63.072 8.41,23.126 5.37,52.209 -19.86,52.559 -2.45,3.271 -14.48,1.402 -14.01,4.672 30.83,7.592 -18.57,5.607 10.51,18.688 13.55,15.301 48.24,8.41 52.56,-8.176 12.15,-13.899 8.64,-44.15 4.67,-64.239 -3.27,-21.725 -8.06,-43.45 -14.02,-65.408 -4.08,-19.973 -8.64,-44.034 -16.35,-60.736 -3.38,-21.141 -12.14,-40.997 -17.52,-59.568 -5.95,-19.038 -12.61,-40.997 -19.85,-57.232 -5.73,-20.556 -13.32,-39.361 -18.69,-61.903 0.12,-22.66 11.8,-30.602 36.21,-33.872 19.27,-6.658 38.66,-15.885 57.23,-19.856 14.13,-6.775 47.19,-22.543 22.19,-35.04 15.54,31.068 -5.02,-19.155 -29.2,-1.168 -21.14,-0.234 -47.54,14.133 -66.58,3.504 -5.83,-12.731 -4.78,-44.734 -17.51,-56.064 -10.63,-13.899 -21.85,-31.419 -36.21,-40.88 -4.36,-3.329 -8.18,-4.866 -11.5,-5 z m 18.51,33.032 c 9.11,24.178 25.34,73.35 30.36,75.92 -47.07,11.913 -40.29,-50.341 -30.36,-75.92 z M 954.912,446.868 c 8.097,1.205 -13.198,15.666 -7.154,21.535 -11.564,12.848 -28.85,23.01 -44.384,29.2 -31.186,4.555 -42.399,-12.731 -18.688,-23.36 15.184,-9.577 36.441,-15.884 50.224,-23.36 11.329,-3.358 17.302,-4.416 20.002,-4.015 z M 652.255,720.691 c 25.228,0.584 48.355,1.518 65.407,8.176 18.688,4.788 35.508,14.249 44.384,24.527 11.213,5.49 35.157,32.12 12.848,42.048 -16.469,6.191 -45.552,3.387 -63.072,7.008 -22.308,-0.584 -49.99,3.037 -68.911,-3.504 -17.404,-4.321 -34.339,-13.782 -46.72,-23.36 -14.367,-5.956 -22.543,-35.273 -1.168,-42.047 15.651,-7.125 39.361,-9.695 57.232,-12.848 z m 317.439,941.549 c 15.062,0.54 28.404,3.27 36.466,10.37 -25.932,16.82 -64.593,20.2 -99.282,26.86 -34.573,3.74 -119.603,0.94 -46.72,-14.01 -76.621,5.49 12.264,-19.28 36.208,-17.52 18.323,-1.39 48.224,-6.6 73.328,-5.7 z m -165.6,23.22 c 5.256,5.13 -44.384,24.76 -68.912,29.2 -10.628,-10.63 46.837,-22.31 68.912,-29.2 z m 26.864,57.23 c 32.12,8.52 -8.41,56.65 -10.512,74.75 -23.594,-11.68 -22.192,-76.97 10.512,-74.75 z m 86.432,0 c 30.952,7.59 22.192,48.59 7.008,65.41 -12.148,20.55 -28.149,40.06 -46.72,52.55 -36.208,1.06 -16.469,-51.85 -7.008,-65.4 11.213,-21.38 22.893,-45.2 46.72,-52.56 z m -178.667,20.88 c 15.744,-0.2 29.383,4.23 29.163,21.17 12.03,36.32 -23.944,25.22 -43.216,19.85 -27.097,-9.81 -51.509,7.83 -43.216,30.37 6.424,21.72 19.506,38.31 21.024,59.57 -15.884,-10.05 -27.564,-25.93 -39.712,-43.22 -9.343,-15.65 -21.374,-33.52 -33.871,-46.72 -19.272,-21.14 -23.244,-29.2 12.848,-25.69 24.878,-1.41 48.471,-7.6 68.911,-11.68 8.41,-1.76 18.622,-3.54 28.069,-3.65 z"
       id="path7"
       inkscape:connector-curvature="0"
       style="fill:#260000" />
  </g>
</svg>
